# xmcd
#
# Track frame offsets:
#	150
#	20700
#	46050
#	62250
#	75487
#	98137
#	110737
#	126337
#	140737
#	162862
#	188962
#	205087
#	219412
#	232499
#	245474
#	257849
#	273636
#	289836
#
# Disc length: 4080 seconds
#
# Revision: 2
# Processed by: cddbd v1.5.2PL0 Copyright (c) Steve Scherf et al.
# Submitted via: EasyCDDAExtractor 7.1.0.1
#
DISCID=120fee12
DTITLE=Various Artist - Инструментальные хиты
DYEAR=1900
DGENRE=
TTITLE0=Carlos Santana - Samba Pa Ti
TTITLE1=Fourplay - Fields Of Gold
TTITLE2=Miles Davis - Time After Time
TTITLE3=Ennio Morricone Orchestra - Per Un Pugno Di Dollari - Titoli
TTITLE4=Kenny G - Songbird
TTITLE5=Fausto Papetti - Every Breath You Take
TTITLE6=Rondo Veneziano - Rondo Veneziano
TTITLE7=Fleetwood Mac - Albatross
TTITLE8=The Alan Parsons Project - Lucifer
TTITLE9=Vangelis - Pulstar
TTITLE10=Bernard Purdie - What's Going On? - Ain't No Sunshine When She's Gone
TTITLE11=George Winston - Love Me Two Times
TTITLE12=Jose Feliciano - Yesterday
TTITLE13=John Barry - The James Bond Theme
TTITLE14=Henry Mancini - Baby Elephant Walk
TTITLE15=James Galway - Memory (From "Cats")
TTITLE16=Astor Piazzolla Quinteto - Chique
TTITLE17=The Glenn Miller Orchestra - In The Mood
EXTD=
EXTT0=
EXTT1=
EXTT2=
EXTT3=
EXTT4=
EXTT5=
EXTT6=
EXTT7=
EXTT8=
EXTT9=
EXTT10=
EXTT11=
EXTT12=
EXTT13=
EXTT14=
EXTT15=
EXTT16=
EXTT17=
PLAYORDER=
